<svg xmlns="http://www.w3.org/2000/svg" xmlns:xlink="http://www.w3.org/1999/xlink" width="500" zoomAndPan="magnify" viewBox="0 0 375 374.999991" height="500" preserveAspectRatio="xMidYMid meet" version="1.0"><defs><clipPath id="f2d78dce07"><path d="M 54 170 L 319 170 L 319 341 L 54 341 Z M 54 170 " clip-rule="nonzero"/></clipPath><clipPath id="5c412d9b29"><path d="M 289.675781 371.230469 L 28.152344 298.773438 L 66.238281 161.300781 L 327.761719 233.753906 Z M 289.675781 371.230469 " clip-rule="nonzero"/></clipPath><clipPath id="465a1801ad"><path d="M 289.6875 223.207031 C 294.628906 224.574219 299.28125 226.972656 303.652344 230.398438 C 320.714844 243.992188 323.613281 268.726562 310.019531 285.789062 C 274.160156 331.253906 214.96875 350.53125 159.199219 335.082031 C 103.425781 319.628906 62.597656 272.640625 55.039062 215.148438 C 52.164062 193.523438 67.433594 173.597656 89.003906 170.933594 C 110.628906 168.058594 130.550781 183.328125 133.21875 204.898438 C 136.710938 230.683594 155.1875 251.980469 180.292969 258.933594 C 205.402344 265.890625 231.996094 257.082031 248.261719 236.769531 C 258.21875 224.019531 274.871094 219.101562 289.6875 223.207031 Z M 289.6875 223.207031 " clip-rule="nonzero"/></clipPath><clipPath id="cd12acb92d"><path d="M 53 52 L 270 52 L 270 282 L 53 282 Z M 53 52 " clip-rule="nonzero"/></clipPath><clipPath id="99398a715d"><path d="M 0.00390625 203.132812 L 179.441406 -0.449219 L 286.457031 93.875 L 107.019531 297.457031 Z M 0.00390625 203.132812 " clip-rule="nonzero"/></clipPath><clipPath id="39e79fac28"><path d="M 133.140625 267.820312 C 129.753906 271.664062 125.5625 274.804688 120.570312 277.234375 C 100.890625 286.648438 77.375 278.445312 67.964844 258.765625 C 42.738281 206.640625 51.261719 144.980469 89.527344 101.5625 C 127.792969 58.148438 187.898438 41.953125 242.917969 60.273438 C 263.625 67.136719 274.871094 89.578125 267.847656 110.144531 C 260.980469 130.851562 238.542969 142.101562 217.976562 135.074219 C 193.253906 126.949219 166.027344 134.265625 148.800781 153.808594 C 131.574219 173.355469 127.878906 201.125 139.042969 224.628906 C 146.160156 239.160156 143.308594 256.285156 133.140625 267.820312 Z M 133.140625 267.820312 " clip-rule="nonzero"/></clipPath><clipPath id="25e20a9b86"><path d="M 153.4375 156.320312 L 234.753906 156.320312 L 234.753906 237.636719 L 153.4375 237.636719 Z M 153.4375 156.320312 " clip-rule="nonzero"/></clipPath><clipPath id="bfdb2f943f"><path d="M 194.097656 156.320312 C 171.640625 156.320312 153.4375 174.523438 153.4375 196.976562 C 153.4375 219.433594 171.640625 237.636719 194.097656 237.636719 C 216.550781 237.636719 234.753906 219.433594 234.753906 196.976562 C 234.753906 174.523438 216.550781 156.320312 194.097656 156.320312 Z M 194.097656 156.320312 " clip-rule="nonzero"/></clipPath><clipPath id="d135ba3555"><path d="M 265.402344 120.816406 L 346.714844 120.816406 L 346.714844 202.128906 L 265.402344 202.128906 Z M 265.402344 120.816406 " clip-rule="nonzero"/></clipPath><clipPath id="ed2f82eb22"><path d="M 306.058594 120.816406 C 283.605469 120.816406 265.402344 139.015625 265.402344 161.472656 C 265.402344 183.925781 283.605469 202.128906 306.058594 202.128906 C 328.511719 202.128906 346.714844 183.925781 346.714844 161.472656 C 346.714844 139.015625 328.511719 120.816406 306.058594 120.816406 Z M 306.058594 120.816406 " clip-rule="nonzero"/></clipPath></defs><g clip-path="url(#f2d78dce07)"><g clip-path="url(#5c412d9b29)"><g clip-path="url(#465a1801ad)"><path fill="#7fc367" d="M 289.675781 371.230469 L 28.691406 298.925781 L 66.777344 161.449219 L 327.761719 233.753906 Z M 289.675781 371.230469 " fill-opacity="1" fill-rule="nonzero"/></g></g></g><g clip-path="url(#cd12acb92d)"><g clip-path="url(#99398a715d)"><g clip-path="url(#39e79fac28)"><path fill="#7fc367" d="M 0.00390625 203.132812 L 179.070312 -0.03125 L 286.085938 94.292969 L 107.019531 297.457031 Z M 0.00390625 203.132812 " fill-opacity="1" fill-rule="nonzero"/></g></g></g><g clip-path="url(#25e20a9b86)"><g clip-path="url(#bfdb2f943f)"><path fill="#7fc367" d="M 153.4375 156.320312 L 234.753906 156.320312 L 234.753906 237.636719 L 153.4375 237.636719 Z M 153.4375 156.320312 " fill-opacity="1" fill-rule="nonzero"/></g></g><g clip-path="url(#d135ba3555)"><g clip-path="url(#ed2f82eb22)"><path fill="#7fc367" d="M 265.402344 120.816406 L 346.714844 120.816406 L 346.714844 202.128906 L 265.402344 202.128906 Z M 265.402344 120.816406 " fill-opacity="1" fill-rule="nonzero"/></g></g></svg>